<?xml version="1.0" encoding="utf-8"?>
<!-- Uploaded to: SVG Repo, www.svgrepo.com, Generator: SVG Repo Mixer Tools -->
<svg version="1.1" id="Uploaded to svgrepo.com" xmlns="http://www.w3.org/2000/svg" xmlns:xlink="http://www.w3.org/1999/xlink" 
	 width="800px" height="800px" viewBox="0 0 32 32" xml:space="preserve">
<style type="text/css">
	.avocado_een{fill:#231F20;}
	.avocado_acht{fill:#A3AEB5;}
	.avocado_drie{fill:#716558;}
	.st0{fill:#EAD13F;}
	.st1{fill:#CC4121;}
	.st2{fill:#FFFAEE;}
	.st3{fill:#E0A838;}
	.st4{fill:#D1712A;}
	.st5{fill:#788287;}
	.st6{fill:#C3CC6A;}
	.st7{fill:#6F9B45;}
	.st8{fill:#248EBC;}
	.st9{fill:#8D3E93;}
	.st10{fill:#3D3935;}
	.st11{fill:#D36781;}
	.st12{fill:#E598A3;}
	.st13{fill:#AF9480;}
	.st14{fill:#DBD2C1;}
	.st15{fill:#231F20;}
</style>
<g>
	<g>
		<path class="avocado_acht" d="M11,21.5C5.21,21.5,0.5,16.79,0.5,11S5.21,0.5,11,0.5S21.5,5.21,21.5,11
			c0,2.33-0.757,4.543-2.189,6.4l-0.269,0.349l1.946,1.946l-1.3,1.286l-1.939-1.939L17.4,19.311C15.543,20.743,13.33,21.5,11,21.5z
			 M11,2.5c-4.687,0-8.5,3.813-8.5,8.5s3.813,8.5,8.5,8.5s8.5-3.813,8.5-8.5S15.687,2.5,11,2.5z"/>
	</g>
	<polygon class="avocado_drie" points="18.69,21.983 21.996,18.703 31.293,28 28,31.293 	"/>
	<path class="avocado_een" d="M10.927,2.073c-4.963,0-9,4.037-9,9s4.037,9,9,9c4.963,0,9-4.037,9-9S15.89,2.073,10.927,2.073z
		 M10.927,19.073c-4.418,0-8-3.582-8-8s3.582-8,8-8s8,3.582,8,8S15.345,19.073,10.927,19.073z M21.927,18.073l-1,1l-1.294-1.294
		c1.433-1.857,2.294-4.179,2.294-6.706c0-6.075-4.925-11-11-11s-11,4.925-11,11s4.925,11,11,11c2.527,0,4.848-0.861,6.706-2.294
		l1.294,1.294l-1,1l10,10l4-4L21.927,18.073z M0.927,11.073c0-5.514,4.486-10,10-10c5.514,0,10,4.486,10,10s-4.486,10-10,10
		C5.413,21.073,0.927,16.587,0.927,11.073z M18.398,19.13c0.203-0.188,0.398-0.383,0.586-0.586l1.236,1.236l-0.586,0.586
		L18.398,19.13z M19.322,22.053l2.598-2.573l8.593,8.593l-2.586,2.586L19.322,22.053z"/>
</g>
</svg>