<?xml version="1.0" encoding="utf-8"?>
<!-- Uploaded to: SVG Repo, www.svgrepo.com, Generator: SVG Repo Mixer Tools -->
<svg version="1.1" id="Uploaded to svgrepo.com" xmlns="http://www.w3.org/2000/svg" xmlns:xlink="http://www.w3.org/1999/xlink" 
	 width="800px" height="800px" viewBox="0 0 32 32" xml:space="preserve">
<style type="text/css">
	.avocado_een{fill:#231F20;}
	.avocado_twee{fill:#3D3935;}
	.avocado_zes{fill:#FFFAEE;}
	.avocado_acht{fill:#A3AEB5;}
	.avocado_vijftien{fill:#D36781;}
	.avocado_twintig{fill:#EAD13F;}
	.st0{fill:#E0A838;}
	.st1{fill:#788287;}
	.st2{fill:#DBD2C1;}
	.st3{fill:#6F9B45;}
	.st4{fill:#CC4121;}
	.st5{fill:#E598A3;}
	.st6{fill:#8D3E93;}
	.st7{fill:#BF63C1;}
	.st8{fill:#AF9480;}
	.st9{fill:#716558;}
	.st10{fill:#0E608E;}
	.st11{fill:#248EBC;}
	.st12{fill:#D1712A;}
	.st13{fill:#C3CC6A;}
</style>
<g>
	<polygon class="avocado_zes" points="10.5,23.833 10.5,23.5 21.5,23.5 21.5,23.833 16,31.167 	"/>
	<g>
		<polygon class="avocado_twee" points="18.375,28 13.625,28 16,31.167 		"/>
	</g>
	<g>
		<rect x="10.5" y="10.5" class="avocado_twintig" width="11" height="13"/>
	</g>
	<g>
		<rect x="10.5" y="6.5" class="avocado_acht" width="11" height="4"/>
	</g>
	<path class="avocado_vijftien" d="M21.5,6.5h-11V3c0-1.381,1.119-2.5,2.5-2.5h6c1.381,0,2.5,1.119,2.5,2.5V6.5z"/>
	<path class="avocado_een" d="M19,0h-6c-1.657,0-3,1.343-3,3v21l6,8l6-8V3C22,1.343,20.657,0,19,0z M16,30.333L11.25,24h9.5
		L16,30.333z M11,23V11h10v12H11z M21,10H11V7h10V10z M11,6V3c0-1.103,0.897-2,2-2h6c1.103,0,2,0.897,2,2v3H11z"/>
</g>
</svg>